<svg width="322" height="120" viewBox="0 0 322 120" fill="none" xmlns="http://www.w3.org/2000/svg">
<path d="M7.648 6.496C7.25333 6.29333 6.82133 6.11733 6.352 5.968C5.88267 5.81867 5.42933 5.744 4.992 5.744C4.36267 5.744 3.86133 5.888 3.488 6.176C3.12533 6.464 2.944 6.85333 2.944 7.344C2.944 7.696 3.06133 7.99467 3.296 8.24C3.54133 8.48533 3.85067 8.704 4.224 8.896C4.608 9.07733 5.01333 9.248 5.44 9.408C5.92 9.58933 6.384 9.808 6.832 10.064C7.28 10.32 7.648 10.6667 7.936 11.104C8.23467 11.5307 8.384 12.1067 8.384 12.832C8.384 13.4507 8.22933 14.0107 7.92 14.512C7.61067 15.0027 7.17333 15.3973 6.608 15.696C6.04267 15.984 5.37067 16.128 4.592 16.128C3.824 16.128 3.10933 16.0053 2.448 15.76C1.79733 15.5147 1.24267 15.232 0.784 14.912L1.472 13.68C1.84533 13.968 2.304 14.2187 2.848 14.432C3.40267 14.6453 3.93067 14.752 4.432 14.752C4.80533 14.752 5.168 14.688 5.52 14.56C5.88267 14.432 6.18133 14.2293 6.416 13.952C6.65067 13.664 6.768 13.296 6.768 12.848C6.768 12.464 6.66133 12.1387 6.448 11.872C6.23467 11.6053 5.95733 11.3813 5.616 11.2C5.28533 11.008 4.92267 10.8373 4.528 10.688C4.16533 10.56 3.79733 10.4107 3.424 10.24C3.05067 10.0693 2.704 9.86667 2.384 9.632C2.07467 9.38667 1.824 9.088 1.632 8.736C1.44 8.384 1.344 7.95733 1.344 7.456C1.344 6.848 1.488 6.32 1.776 5.872C2.07467 5.41333 2.48 5.056 2.992 4.8C3.504 4.53333 4.096 4.38933 4.768 4.368C5.504 4.368 6.15467 4.45867 6.72 4.64C7.296 4.82133 7.80267 5.04 8.24 5.296L7.648 6.496ZM13.6805 16.16C12.9338 16.16 12.2832 16.0107 11.7285 15.712C11.1845 15.4027 10.7632 14.9813 10.4645 14.448C10.1765 13.9147 10.0325 13.312 10.0325 12.64C10.0325 11.9893 10.1925 11.3973 10.5125 10.864C10.8432 10.32 11.2858 9.89333 11.8405 9.584C12.4058 9.264 13.0298 9.104 13.7125 9.104C14.5872 9.104 15.3125 9.36 15.8885 9.872C16.4645 10.384 16.8592 11.088 17.0725 11.984L11.8245 13.824C12.0058 14.1547 12.2618 14.416 12.5925 14.608C12.9232 14.7893 13.2965 14.88 13.7125 14.88C14.0112 14.88 14.2938 14.8267 14.5605 14.72C14.8272 14.6133 15.0832 14.4747 15.3285 14.304L16.0165 15.408C15.6752 15.632 15.2965 15.8133 14.8805 15.952C14.4752 16.0907 14.0752 16.16 13.6805 16.16ZM11.5045 12.56C11.4938 12.688 11.4992 12.8107 11.5205 12.928L15.3765 11.504C15.2272 11.184 15.0085 10.9013 14.7205 10.656C14.4432 10.4107 14.0698 10.288 13.6005 10.288C12.9925 10.288 12.4912 10.5013 12.0965 10.928C11.7018 11.3547 11.5045 11.8987 11.5045 12.56ZM24.297 15.376C23.9983 15.6213 23.641 15.8133 23.225 15.952C22.809 16.0907 22.393 16.16 21.977 16.16C21.2623 16.16 20.6277 16.016 20.073 15.728C19.529 15.44 19.1023 15.0347 18.793 14.512C18.4943 13.9893 18.345 13.376 18.345 12.672C18.345 11.968 18.505 11.36 18.825 10.848C19.1557 10.3253 19.5823 9.92 20.105 9.632C20.6383 9.344 21.2143 9.2 21.833 9.2C22.3663 9.2 22.841 9.27467 23.257 9.424C23.673 9.57333 24.0357 9.776 24.345 10.032L23.593 11.008C23.401 10.8693 23.1663 10.7413 22.889 10.624C22.6117 10.496 22.3023 10.432 21.961 10.432C21.5663 10.432 21.209 10.5333 20.889 10.736C20.569 10.928 20.313 11.1947 20.121 11.536C19.929 11.8667 19.833 12.2453 19.833 12.672C19.833 13.088 19.929 13.4667 20.121 13.808C20.313 14.1493 20.5797 14.4213 20.921 14.624C21.2623 14.8267 21.657 14.928 22.105 14.928C22.3823 14.928 22.6383 14.8853 22.873 14.8C23.1183 14.7147 23.337 14.5973 23.529 14.448L24.297 15.376ZM28.3299 16.256C27.7219 16.256 27.2205 16.0747 26.8259 15.712C26.4312 15.3387 26.2285 14.8587 26.2179 14.272V9.376H27.7059V13.744C27.7272 14.1067 27.8339 14.4 28.0259 14.624C28.2179 14.848 28.5165 14.9653 28.9219 14.976C29.2845 14.976 29.6152 14.8693 29.9139 14.656C30.2125 14.432 30.4472 14.1333 30.6179 13.76C30.7992 13.376 30.8899 12.944 30.8899 12.464V9.376H32.3779V16H31.0339L30.9219 14.752C30.7085 15.1893 30.3672 15.552 29.8979 15.84C29.4392 16.1173 28.9165 16.256 28.3299 16.256ZM36.2959 9.376L36.4079 10.928C36.5892 10.5547 36.8399 10.2347 37.1599 9.968C37.4799 9.69067 37.8105 9.48267 38.1519 9.344C38.5039 9.19467 38.8079 9.11467 39.0639 9.104L38.9999 10.592C38.4985 10.5707 38.0559 10.672 37.6719 10.896C37.2879 11.1093 36.9892 11.4027 36.7759 11.776C36.5625 12.1493 36.4559 12.5493 36.4559 12.976V16H34.9679V9.376H36.2959ZM40.9835 9.376H42.4715V16H40.9835V9.376ZM40.8715 6.992C40.8715 6.74667 40.9622 6.54933 41.1435 6.4C41.3355 6.24 41.5435 6.16 41.7675 6.16C41.9915 6.16 42.1942 6.24 42.3755 6.4C42.5568 6.54933 42.6475 6.74667 42.6475 6.992C42.6475 7.23733 42.5568 7.44 42.3755 7.6C42.1942 7.74933 41.9915 7.824 41.7675 7.824C41.5435 7.824 41.3355 7.74933 41.1435 7.6C40.9622 7.44 40.8715 7.23733 40.8715 6.992ZM45.7016 6.464H47.2056V9.392H49.0136V10.576H47.2056V16H45.7016V10.576H44.4856V9.392H45.7016V6.464ZM51.3873 19.184L52.9073 15.792L49.8353 9.376H51.5153L53.6432 14.096L55.7553 9.376H57.1313L52.8593 19.184H51.3873ZM63.316 4.432H70.996V5.92H67.892V16H66.34V5.92H63.316V4.432ZM72.0748 19.184L73.5948 15.792L70.5228 9.376H72.2028L74.3307 14.096L76.4428 9.376H77.8188L73.5468 19.184H72.0748ZM83.341 16.16C82.861 16.16 82.397 16.0587 81.949 15.856C81.5117 15.6427 81.165 15.36 80.909 15.008V19.184H79.421V9.264H80.717L80.845 10.384C81.165 10.0107 81.5597 9.70667 82.029 9.472C82.509 9.22667 83.037 9.104 83.613 9.104C84.2423 9.104 84.8023 9.25333 85.293 9.552C85.7943 9.85067 86.189 10.2667 86.477 10.8C86.765 11.3333 86.909 11.9573 86.909 12.672C86.909 13.3867 86.749 14.0053 86.429 14.528C86.1197 15.0507 85.693 15.456 85.149 15.744C84.6157 16.0213 84.013 16.16 83.341 16.16ZM83.053 14.96C83.469 14.96 83.853 14.864 84.205 14.672C84.5677 14.4693 84.8557 14.1973 85.069 13.856C85.2823 13.5147 85.389 13.1253 85.389 12.688C85.389 12.24 85.2877 11.8453 85.085 11.504C84.8823 11.152 84.6103 10.88 84.269 10.688C83.9383 10.4853 83.565 10.384 83.149 10.384C82.573 10.384 82.0877 10.544 81.693 10.864C81.2983 11.184 81.037 11.6 80.909 12.112V13.232C80.9943 13.7333 81.2343 14.1493 81.629 14.48C82.0343 14.8 82.509 14.96 83.053 14.96ZM91.9774 16.16C91.2307 16.16 90.58 16.0107 90.0254 15.712C89.4814 15.4027 89.06 14.9813 88.7614 14.448C88.4734 13.9147 88.3294 13.312 88.3294 12.64C88.3294 11.9893 88.4894 11.3973 88.8094 10.864C89.14 10.32 89.5827 9.89333 90.1374 9.584C90.7027 9.264 91.3267 9.104 92.0094 9.104C92.884 9.104 93.6094 9.36 94.1854 9.872C94.7614 10.384 95.156 11.088 95.3694 11.984L90.1214 13.824C90.3027 14.1547 90.5587 14.416 90.8894 14.608C91.22 14.7893 91.5934 14.88 92.0094 14.88C92.308 14.88 92.5907 14.8267 92.8574 14.72C93.124 14.6133 93.38 14.4747 93.6254 14.304L94.3134 15.408C93.972 15.632 93.5934 15.8133 93.1774 15.952C92.772 16.0907 92.372 16.16 91.9774 16.16ZM89.8014 12.56C89.7907 12.688 89.796 12.8107 89.8174 12.928L93.6734 11.504C93.524 11.184 93.3054 10.9013 93.0174 10.656C92.74 10.4107 92.3667 10.288 91.8974 10.288C91.2894 10.288 90.788 10.5013 90.3934 10.928C89.9987 11.3547 89.8014 11.8987 89.8014 12.56Z" fill="#333333"/>
<path d="M155.088 4.224C156.571 4.224 157.707 4.58667 158.496 5.312C159.296 6.02667 159.696 6.98667 159.696 8.192C159.696 8.864 159.552 9.52533 159.264 10.176C158.987 10.8267 158.512 11.344 157.84 11.728L160.576 16H157.872L155.392 12.256H153.84V16H151.52V4.224H155.088ZM155.488 10.016C155.957 10.016 156.32 9.92 156.576 9.728C156.843 9.52533 157.029 9.29067 157.136 9.024C157.243 8.74667 157.296 8.496 157.296 8.272C157.296 8.144 157.275 7.984 157.232 7.792C157.2 7.58933 157.125 7.38667 157.008 7.184C156.891 6.98133 156.709 6.81067 156.464 6.672C156.229 6.53333 155.909 6.464 155.504 6.464H153.84V10.016H155.488ZM165.248 16.192C164.395 16.192 163.67 16.032 163.072 15.712C162.486 15.392 162.038 14.9493 161.728 14.384C161.419 13.8187 161.264 13.168 161.264 12.432C161.264 11.728 161.446 11.0933 161.808 10.528C162.171 9.96267 162.656 9.51467 163.264 9.184C163.872 8.84267 164.55 8.672 165.296 8.672C166.299 8.672 167.12 8.96533 167.76 9.552C168.411 10.128 168.832 10.9653 169.024 12.064L163.904 13.696C164.246 14.0907 164.71 14.288 165.296 14.288C165.542 14.288 165.776 14.2453 166 14.16C166.235 14.0747 166.464 13.9627 166.688 13.824L167.68 15.488C167.307 15.7013 166.902 15.872 166.464 16C166.038 16.128 165.632 16.192 165.248 16.192ZM163.472 12.304C163.472 12.3573 163.472 12.4053 163.472 12.448L166.544 11.408C166.448 11.1413 166.294 10.912 166.08 10.72C165.867 10.5173 165.547 10.416 165.12 10.416C164.619 10.416 164.219 10.5867 163.92 10.928C163.622 11.2693 163.472 11.728 163.472 12.304ZM173.54 16.144L169.348 9.008H172.004L173.636 12.336L175.076 9.008H177.572L173.604 16.144H173.54ZM182.092 16.192C181.239 16.192 180.513 16.032 179.916 15.712C179.329 15.392 178.881 14.9493 178.572 14.384C178.263 13.8187 178.108 13.168 178.108 12.432C178.108 11.728 178.289 11.0933 178.652 10.528C179.015 9.96267 179.5 9.51467 180.108 9.184C180.716 8.84267 181.393 8.672 182.14 8.672C183.143 8.672 183.964 8.96533 184.604 9.552C185.255 10.128 185.676 10.9653 185.868 12.064L180.748 13.696C181.089 14.0907 181.553 14.288 182.14 14.288C182.385 14.288 182.62 14.2453 182.844 14.16C183.079 14.0747 183.308 13.9627 183.532 13.824L184.524 15.488C184.151 15.7013 183.745 15.872 183.308 16C182.881 16.128 182.476 16.192 182.092 16.192ZM180.316 12.304C180.316 12.3573 180.316 12.4053 180.316 12.448L183.388 11.408C183.292 11.1413 183.137 10.912 182.924 10.72C182.711 10.5173 182.391 10.416 181.964 10.416C181.463 10.416 181.063 10.5867 180.764 10.928C180.465 11.2693 180.316 11.728 180.316 12.304ZM189.528 9.008L189.688 10.128C189.933 9.69067 190.28 9.33867 190.728 9.072C191.176 8.80533 191.72 8.672 192.36 8.672C193.021 8.672 193.57 8.86933 194.008 9.264C194.456 9.648 194.685 10.1493 194.696 10.768V16H192.456V11.6C192.445 11.2907 192.36 11.0453 192.2 10.864C192.05 10.672 191.794 10.576 191.432 10.576C190.909 10.576 190.493 10.8213 190.184 11.312C189.885 11.792 189.736 12.4053 189.736 13.152V16H187.496V9.008H189.528ZM199.252 16.336C198.622 16.336 198.094 16.144 197.668 15.76C197.241 15.3653 197.017 14.8587 196.996 14.24V9.008H199.236V13.408C199.257 13.7173 199.337 13.968 199.476 14.16C199.614 14.3413 199.849 14.432 200.18 14.432C200.681 14.432 201.076 14.192 201.364 13.712C201.652 13.2213 201.796 12.6027 201.796 11.856V9.008H204.036V16H202.004L201.844 14.88C201.609 15.3173 201.273 15.6693 200.836 15.936C200.398 16.2027 199.87 16.336 199.252 16.336ZM209.78 16.192C208.926 16.192 208.201 16.032 207.604 15.712C207.017 15.392 206.569 14.9493 206.26 14.384C205.95 13.8187 205.796 13.168 205.796 12.432C205.796 11.728 205.977 11.0933 206.34 10.528C206.702 9.96267 207.188 9.51467 207.796 9.184C208.404 8.84267 209.081 8.672 209.828 8.672C210.83 8.672 211.652 8.96533 212.292 9.552C212.942 10.128 213.363 10.9653 213.556 12.064L208.436 13.696C208.777 14.0907 209.241 14.288 209.828 14.288C210.073 14.288 210.308 14.2453 210.532 14.16C210.766 14.0747 210.996 13.9627 211.22 13.824L212.212 15.488C211.838 15.7013 211.433 15.872 210.996 16C210.569 16.128 210.164 16.192 209.78 16.192ZM208.004 12.304C208.004 12.3573 208.004 12.4053 208.004 12.448L211.076 11.408C210.98 11.1413 210.825 10.912 210.612 10.72C210.398 10.5173 210.078 10.416 209.652 10.416C209.15 10.416 208.75 10.5867 208.452 10.928C208.153 11.2693 208.004 11.728 208.004 12.304ZM227.042 7.072C226.594 6.82667 226.136 6.624 225.666 6.464C225.208 6.304 224.776 6.224 224.37 6.224C223.869 6.224 223.474 6.32533 223.186 6.528C222.898 6.73067 222.754 7.03467 222.754 7.44C222.754 7.71733 222.861 7.968 223.074 8.192C223.298 8.40533 223.581 8.59733 223.922 8.768C224.274 8.93867 224.637 9.09333 225.01 9.232C225.469 9.40267 225.912 9.62133 226.338 9.888C226.765 10.144 227.117 10.5013 227.394 10.96C227.672 11.408 227.81 12.0053 227.81 12.752C227.81 13.3493 227.656 13.904 227.346 14.416C227.037 14.928 226.584 15.344 225.986 15.664C225.389 15.9733 224.653 16.128 223.778 16.128C223.106 16.128 222.418 16.0267 221.714 15.824C221.021 15.6213 220.365 15.3013 219.746 14.864L220.77 13.056C221.176 13.3547 221.64 13.6 222.162 13.792C222.685 13.984 223.154 14.08 223.57 14.08C223.848 14.08 224.125 14.0427 224.402 13.968C224.69 13.8827 224.925 13.744 225.106 13.552C225.298 13.36 225.394 13.0933 225.394 12.752C225.394 12.4 225.224 12.096 224.882 11.84C224.552 11.5733 224.152 11.3493 223.682 11.168C223.32 11.0293 222.946 10.8693 222.562 10.688C222.178 10.5067 221.816 10.288 221.474 10.032C221.144 9.76533 220.872 9.44 220.658 9.056C220.456 8.66133 220.354 8.18133 220.354 7.616C220.354 6.93333 220.504 6.34133 220.802 5.84C221.112 5.33867 221.544 4.944 222.098 4.656C222.653 4.35733 223.293 4.192 224.018 4.16C224.968 4.16 225.736 4.272 226.322 4.496C226.92 4.72 227.453 4.98667 227.922 5.296L227.042 7.072ZM229.715 16V3.376H231.907V10.112C232.152 9.68533 232.499 9.33867 232.947 9.072C233.395 8.80533 233.939 8.672 234.579 8.672C235.24 8.672 235.789 8.86933 236.227 9.264C236.675 9.648 236.904 10.1493 236.915 10.768V16H234.675V11.6C234.664 11.2907 234.579 11.0453 234.419 10.864C234.269 10.672 234.013 10.576 233.651 10.576C233.128 10.576 232.712 10.8213 232.403 11.312C232.104 11.792 231.955 12.4053 231.955 13.152V16H229.715ZM242.159 16.192C241.508 16.192 240.916 16.064 240.383 15.808C239.86 15.5413 239.444 15.136 239.135 14.592C238.825 14.048 238.671 13.3547 238.671 12.512C238.671 11.7227 238.831 11.04 239.151 10.464C239.471 9.888 239.892 9.44533 240.414 9.136C240.937 8.816 241.492 8.656 242.079 8.656C242.772 8.656 243.295 8.768 243.647 8.992C244.009 9.216 244.297 9.46133 244.511 9.728L244.655 9.008H246.735V16H244.495V15.136C244.388 15.2427 244.228 15.3813 244.015 15.552C243.812 15.7227 243.556 15.872 243.247 16C242.937 16.128 242.575 16.192 242.159 16.192ZM242.799 14.368C243.577 14.368 244.143 14.016 244.495 13.312V11.6C244.367 11.2587 244.143 10.9867 243.823 10.784C243.513 10.5813 243.145 10.48 242.719 10.48C242.239 10.48 241.823 10.6613 241.471 11.024C241.119 11.376 240.943 11.8347 240.943 12.4C240.943 12.7733 241.028 13.1093 241.199 13.408C241.369 13.7067 241.593 13.9413 241.871 14.112C242.159 14.2827 242.468 14.368 242.799 14.368ZM251.059 9.008L251.235 10.608C251.437 10.2027 251.715 9.856 252.067 9.568C252.419 9.26933 252.765 9.04533 253.107 8.896C253.448 8.736 253.709 8.656 253.891 8.656L253.779 10.896C253.256 10.832 252.808 10.9173 252.435 11.152C252.061 11.3867 251.773 11.696 251.571 12.08C251.368 12.464 251.267 12.8587 251.267 13.264V16H249.043V9.008H251.059ZM255.605 9.008H257.845V16H255.605V9.008ZM255.557 6.528C255.557 6.19733 255.685 5.92533 255.941 5.712C256.208 5.49867 256.49 5.392 256.789 5.392C257.088 5.392 257.36 5.49867 257.605 5.712C257.861 5.92533 257.989 6.19733 257.989 6.528C257.989 6.85867 257.861 7.13067 257.605 7.344C257.36 7.54667 257.088 7.648 256.789 7.648C256.49 7.648 256.208 7.54667 255.941 7.344C255.685 7.13067 255.557 6.85867 255.557 6.528ZM262.184 9.008L262.344 10.128C262.589 9.69067 262.936 9.33867 263.384 9.072C263.832 8.80533 264.376 8.672 265.016 8.672C265.677 8.672 266.227 8.86933 266.664 9.264C267.112 9.648 267.341 10.1493 267.352 10.768V16H265.112V11.6C265.101 11.2907 265.016 11.0453 264.856 10.864C264.707 10.672 264.451 10.576 264.088 10.576C263.565 10.576 263.149 10.8213 262.84 11.312C262.541 11.792 262.392 12.4053 262.392 13.152V16H260.152V9.008H262.184ZM273.268 19.52C272.639 19.52 272.105 19.4453 271.668 19.296C271.241 19.1467 270.879 18.9653 270.58 18.752C270.281 18.5387 270.015 18.336 269.78 18.144L271.092 16.608C271.337 16.832 271.62 17.0453 271.94 17.248C272.271 17.4613 272.703 17.568 273.236 17.568C273.769 17.568 274.233 17.4293 274.628 17.152C275.033 16.8853 275.236 16.4907 275.236 15.968V14.976C275.033 15.3067 274.719 15.5947 274.292 15.84C273.865 16.0747 273.311 16.192 272.628 16.192C271.999 16.192 271.412 16.032 270.868 15.712C270.335 15.3813 269.908 14.9387 269.588 14.384C269.268 13.8187 269.108 13.1787 269.108 12.464C269.108 11.728 269.279 11.0773 269.62 10.512C269.961 9.936 270.404 9.48267 270.948 9.152C271.492 8.82133 272.068 8.656 272.676 8.656C273.284 8.656 273.807 8.74667 274.244 8.928C274.692 9.09867 275.023 9.30667 275.236 9.552L275.412 9.008H277.476V16C277.476 16.6827 277.284 17.2853 276.9 17.808C276.516 18.3413 276.004 18.7573 275.364 19.056C274.735 19.3653 274.036 19.52 273.268 19.52ZM271.364 12.4C271.364 12.9547 271.551 13.424 271.924 13.808C272.297 14.1813 272.756 14.368 273.3 14.368C274.196 14.368 274.841 14.016 275.236 13.312V11.6C275.087 11.2587 274.841 10.9867 274.5 10.784C274.159 10.5813 273.759 10.48 273.3 10.48C272.756 10.48 272.297 10.6613 271.924 11.024C271.551 11.376 271.364 11.8347 271.364 12.4ZM295.892 16.48L287.652 9.04L287.7 16H285.348V3.76H285.444L293.668 11.312L293.62 4.224H295.956V16.48H295.892ZM298.077 12.416C298.077 11.7013 298.242 11.0613 298.573 10.496C298.914 9.93067 299.389 9.488 299.997 9.168C300.605 8.83733 301.303 8.672 302.093 8.672C302.893 8.672 303.586 8.83733 304.173 9.168C304.759 9.488 305.207 9.93067 305.517 10.496C305.837 11.0613 305.997 11.7013 305.997 12.416C305.997 13.1307 305.837 13.776 305.517 14.352C305.207 14.9173 304.759 15.3653 304.173 15.696C303.586 16.0267 302.882 16.192 302.061 16.192C301.293 16.192 300.605 16.0427 299.997 15.744C299.399 15.4453 298.93 15.0133 298.589 14.448C298.247 13.8827 298.077 13.2053 298.077 12.416ZM300.333 12.432C300.333 12.9867 300.493 13.4507 300.813 13.824C301.133 14.1867 301.538 14.368 302.029 14.368C302.551 14.368 302.967 14.1867 303.277 13.824C303.586 13.4507 303.741 12.9867 303.741 12.432C303.741 11.8773 303.586 11.4187 303.277 11.056C302.967 10.6827 302.551 10.496 302.029 10.496C301.538 10.496 301.133 10.6827 300.813 11.056C300.493 11.4187 300.333 11.8773 300.333 12.432ZM308.417 5.936H310.657V8.976H312.353V10.72H310.657V16H308.417V10.72H307.329V8.976H308.417V5.936ZM317.498 16.192C316.645 16.192 315.92 16.032 315.322 15.712C314.736 15.392 314.288 14.9493 313.978 14.384C313.669 13.8187 313.514 13.168 313.514 12.432C313.514 11.728 313.696 11.0933 314.058 10.528C314.421 9.96267 314.906 9.51467 315.514 9.184C316.122 8.84267 316.8 8.672 317.546 8.672C318.549 8.672 319.37 8.96533 320.01 9.552C320.661 10.128 321.082 10.9653 321.274 12.064L316.154 13.696C316.496 14.0907 316.96 14.288 317.546 14.288C317.792 14.288 318.026 14.2453 318.25 14.16C318.485 14.0747 318.714 13.9627 318.938 13.824L319.93 15.488C319.557 15.7013 319.152 15.872 318.714 16C318.288 16.128 317.882 16.192 317.498 16.192ZM315.722 12.304C315.722 12.3573 315.722 12.4053 315.722 12.448L318.794 11.408C318.698 11.1413 318.544 10.912 318.33 10.72C318.117 10.5173 317.797 10.416 317.37 10.416C316.869 10.416 316.469 10.5867 316.17 10.928C315.872 11.2693 315.722 11.728 315.722 12.304Z" fill="#333333"/>
<path d="M1.664 36.432H3.216V48H1.664V36.432ZM7.515 41.376L7.611 42.656C7.835 42.1867 8.18167 41.8133 8.651 41.536C9.12033 41.2587 9.66433 41.12 10.283 41.12C10.9017 41.12 11.4083 41.3067 11.803 41.68C12.2083 42.0427 12.4217 42.5173 12.443 43.104V48H10.939V43.616C10.9177 43.264 10.8057 42.976 10.603 42.752C10.411 42.528 10.107 42.4107 9.691 42.4C9.115 42.4 8.62967 42.6347 8.235 43.104C7.851 43.5627 7.659 44.16 7.659 44.896V48H6.171V41.376H7.515ZM17.4684 48.192L13.7884 41.376H15.5644L17.5644 45.616L19.4204 41.376H21.0844L17.5484 48.192H17.4684ZM25.6024 48.16C24.8557 48.16 24.205 48.0107 23.6504 47.712C23.1064 47.4027 22.685 46.9813 22.3864 46.448C22.0984 45.9147 21.9544 45.312 21.9544 44.64C21.9544 43.9893 22.1144 43.3973 22.4344 42.864C22.765 42.32 23.2077 41.8933 23.7624 41.584C24.3277 41.264 24.9517 41.104 25.6344 41.104C26.509 41.104 27.2344 41.36 27.8104 41.872C28.3864 42.384 28.781 43.088 28.9944 43.984L23.7464 45.824C23.9277 46.1547 24.1837 46.416 24.5144 46.608C24.845 46.7893 25.2184 46.88 25.6344 46.88C25.933 46.88 26.2157 46.8267 26.4824 46.72C26.749 46.6133 27.005 46.4747 27.2504 46.304L27.9384 47.408C27.597 47.632 27.2184 47.8133 26.8024 47.952C26.397 48.0907 25.997 48.16 25.6024 48.16ZM23.4264 44.56C23.4157 44.688 23.421 44.8107 23.4424 44.928L27.2984 43.504C27.149 43.184 26.9304 42.9013 26.6424 42.656C26.365 42.4107 25.9917 42.288 25.5224 42.288C24.9144 42.288 24.413 42.5013 24.0184 42.928C23.6237 43.3547 23.4264 43.8987 23.4264 44.56ZM32.7149 48.128C32.2349 48.128 31.7709 48.048 31.3229 47.888C30.8855 47.7173 30.5229 47.4667 30.2349 47.136L30.8749 46.272C31.1415 46.5387 31.4242 46.7413 31.7229 46.88C32.0215 47.008 32.3095 47.072 32.5869 47.072C32.9069 47.072 33.1842 47.008 33.4189 46.88C33.6642 46.752 33.7869 46.5333 33.7869 46.224C33.7869 45.9893 33.7069 45.8027 33.5469 45.664C33.3975 45.5253 33.2002 45.4187 32.9549 45.344C32.7202 45.2587 32.4749 45.1733 32.2189 45.088C31.0882 44.7253 30.5229 44.08 30.5229 43.152C30.5229 42.8107 30.6082 42.4853 30.7789 42.176C30.9602 41.8667 31.2215 41.616 31.5629 41.424C31.9149 41.232 32.3469 41.136 32.8589 41.136C33.3175 41.136 33.7282 41.1947 34.0909 41.312C34.4535 41.4293 34.7949 41.616 35.1149 41.872L34.5229 42.784C34.3309 42.592 34.1015 42.448 33.8349 42.352C33.5789 42.2453 33.3442 42.1867 33.1309 42.176C32.8429 42.176 32.5869 42.2453 32.3629 42.384C32.1495 42.5227 32.0429 42.7147 32.0429 42.96C32.0322 43.184 32.1015 43.3653 32.2509 43.504C32.4002 43.632 32.5922 43.7387 32.8269 43.824C33.0722 43.9093 33.3175 43.9893 33.5629 44.064C34.0429 44.224 34.4482 44.4427 34.7789 44.72C35.1202 44.9973 35.2909 45.4027 35.2909 45.936C35.2909 46.5333 35.0775 47.0507 34.6509 47.488C34.2242 47.9147 33.5789 48.128 32.7149 48.128ZM38.0141 38.464H39.5181V41.392H41.3261V42.576H39.5181V48H38.0141V42.576H36.7981V41.392H38.0141V38.464ZM44.4838 41.376L44.5798 42.64C44.8358 42.16 45.1824 41.7867 45.6198 41.52C46.0678 41.2427 46.5798 41.104 47.1558 41.104C47.6998 41.104 48.1531 41.232 48.5158 41.488C48.8891 41.744 49.1184 42.0907 49.2038 42.528C49.4704 42.08 49.8171 41.7333 50.2438 41.488C50.6811 41.232 51.1451 41.104 51.6358 41.104C52.2758 41.104 52.7824 41.2907 53.1558 41.664C53.5398 42.0373 53.7424 42.512 53.7638 43.088V48H52.2758V43.648C52.2544 43.3067 52.1638 43.024 52.0038 42.8C51.8544 42.5653 51.5931 42.4373 51.2198 42.416C50.8251 42.416 50.4784 42.5333 50.1798 42.768C49.8811 42.992 49.6464 43.2907 49.4758 43.664C49.3051 44.0373 49.2144 44.432 49.2038 44.848V48H47.6998V43.648C47.6891 43.3067 47.5984 43.024 47.4278 42.8C47.2678 42.5653 46.9958 42.4373 46.6118 42.416C46.2278 42.416 45.8864 42.5333 45.5878 42.768C45.2891 42.992 45.0544 43.2907 44.8838 43.664C44.7131 44.0373 44.6278 44.4373 44.6278 44.864V48H43.1398V41.376H44.4838ZM59.4149 48.16C58.6682 48.16 58.0175 48.0107 57.4629 47.712C56.9189 47.4027 56.4975 46.9813 56.1989 46.448C55.9109 45.9147 55.7669 45.312 55.7669 44.64C55.7669 43.9893 55.9269 43.3973 56.2469 42.864C56.5775 42.32 57.0202 41.8933 57.5749 41.584C58.1402 41.264 58.7642 41.104 59.4469 41.104C60.3215 41.104 61.0469 41.36 61.6229 41.872C62.1989 42.384 62.5935 43.088 62.8069 43.984L57.5589 45.824C57.7402 46.1547 57.9962 46.416 58.3269 46.608C58.6575 46.7893 59.0309 46.88 59.4469 46.88C59.7455 46.88 60.0282 46.8267 60.2949 46.72C60.5615 46.6133 60.8175 46.4747 61.0629 46.304L61.7509 47.408C61.4095 47.632 61.0309 47.8133 60.6149 47.952C60.2095 48.0907 59.8095 48.16 59.4149 48.16ZM57.2389 44.56C57.2282 44.688 57.2335 44.8107 57.2549 44.928L61.1109 43.504C60.9615 43.184 60.7429 42.9013 60.4549 42.656C60.1775 42.4107 59.8042 42.288 59.3349 42.288C58.7269 42.288 58.2255 42.5013 57.8309 42.928C57.4362 43.3547 57.2389 43.8987 57.2389 44.56ZM65.9994 41.376L66.0954 42.656C66.3194 42.1867 66.666 41.8133 67.1354 41.536C67.6047 41.2587 68.1487 41.12 68.7674 41.12C69.386 41.12 69.8927 41.3067 70.2874 41.68C70.6927 42.0427 70.906 42.5173 70.9274 43.104V48H69.4234V43.616C69.402 43.264 69.29 42.976 69.0874 42.752C68.8954 42.528 68.5914 42.4107 68.1754 42.4C67.5994 42.4 67.114 42.6347 66.7194 43.104C66.3354 43.5627 66.1434 44.16 66.1434 44.896V48H64.6554V41.376H65.9994ZM74.1391 38.464H75.6431V41.392H77.4511V42.576H75.6431V48H74.1391V42.576H72.9231V41.392H74.1391V38.464ZM84.6953 48V36.064H84.7113L90.4073 44.144L96.1833 36.064H96.1993V48H94.6633V40.528L90.4073 46.544H90.3753L86.1993 40.736V48H84.6953ZM101.267 48.256C100.659 48.256 100.158 48.0747 99.7634 47.712C99.3687 47.3387 99.166 46.8587 99.1554 46.272V41.376H100.643V45.744C100.665 46.1067 100.771 46.4 100.963 46.624C101.155 46.848 101.454 46.9653 101.859 46.976C102.222 46.976 102.553 46.8693 102.851 46.656C103.15 46.432 103.385 46.1333 103.555 45.76C103.737 45.376 103.827 44.944 103.827 44.464V41.376H105.315V48H103.971L103.859 46.752C103.646 47.1893 103.305 47.552 102.835 47.84C102.377 48.1173 101.854 48.256 101.267 48.256ZM107.905 35.6H109.393V48H107.905V35.6ZM112.624 38.464H114.128V41.392H115.936V42.576H114.128V48H112.624V42.576H111.408V41.392H112.624V38.464ZM117.749 41.376H119.237V48H117.749V41.376ZM117.637 38.992C117.637 38.7467 117.728 38.5493 117.909 38.4C118.101 38.24 118.309 38.16 118.533 38.16C118.757 38.16 118.96 38.24 119.141 38.4C119.322 38.5493 119.413 38.7467 119.413 38.992C119.413 39.2373 119.322 39.44 119.141 39.6C118.96 39.7493 118.757 39.824 118.533 39.824C118.309 39.824 118.101 39.7493 117.909 39.6C117.728 39.44 117.637 39.2373 117.637 38.992ZM125.747 48.16C125.267 48.16 124.803 48.0587 124.355 47.856C123.918 47.6427 123.571 47.36 123.315 47.008V51.184H121.827V41.264H123.123L123.251 42.384C123.571 42.0107 123.966 41.7067 124.435 41.472C124.915 41.2267 125.443 41.104 126.019 41.104C126.649 41.104 127.209 41.2533 127.699 41.552C128.201 41.8507 128.595 42.2667 128.883 42.8C129.171 43.3333 129.315 43.9573 129.315 44.672C129.315 45.3867 129.155 46.0053 128.835 46.528C128.526 47.0507 128.099 47.456 127.555 47.744C127.022 48.0213 126.419 48.16 125.747 48.16ZM125.459 46.96C125.875 46.96 126.259 46.864 126.611 46.672C126.974 46.4693 127.262 46.1973 127.475 45.856C127.689 45.5147 127.795 45.1253 127.795 44.688C127.795 44.24 127.694 43.8453 127.491 43.504C127.289 43.152 127.017 42.88 126.675 42.688C126.345 42.4853 125.971 42.384 125.555 42.384C124.979 42.384 124.494 42.544 124.099 42.864C123.705 43.184 123.443 43.6 123.315 44.112V45.232C123.401 45.7333 123.641 46.1493 124.035 46.48C124.441 46.8 124.915 46.96 125.459 46.96ZM131.312 35.6H132.8V48H131.312V35.6ZM138.462 48.16C137.715 48.16 137.064 48.0107 136.51 47.712C135.966 47.4027 135.544 46.9813 135.246 46.448C134.958 45.9147 134.814 45.312 134.814 44.64C134.814 43.9893 134.974 43.3973 135.294 42.864C135.624 42.32 136.067 41.8933 136.622 41.584C137.187 41.264 137.811 41.104 138.494 41.104C139.368 41.104 140.094 41.36 140.67 41.872C141.246 42.384 141.64 43.088 141.854 43.984L136.606 45.824C136.787 46.1547 137.043 46.416 137.374 46.608C137.704 46.7893 138.078 46.88 138.494 46.88C138.792 46.88 139.075 46.8267 139.342 46.72C139.608 46.6133 139.864 46.4747 140.11 46.304L140.798 47.408C140.456 47.632 140.078 47.8133 139.662 47.952C139.256 48.0907 138.856 48.16 138.462 48.16ZM136.286 44.56C136.275 44.688 136.28 44.8107 136.302 44.928L140.158 43.504C140.008 43.184 139.79 42.9013 139.502 42.656C139.224 42.4107 138.851 42.288 138.382 42.288C137.774 42.288 137.272 42.5013 136.878 42.928C136.483 43.3547 136.286 43.8987 136.286 44.56Z" fill="#333333"/>
<path d="M296.8 37.392H299.984V48H297.648V39.632H296.8V37.392ZM301.74 46.848C301.74 46.5173 301.857 46.24 302.092 46.016C302.337 45.792 302.604 45.68 302.892 45.68C303.159 45.68 303.409 45.792 303.644 46.016C303.889 46.24 304.012 46.5173 304.012 46.848C304.012 47.2 303.889 47.4827 303.644 47.696C303.409 47.8987 303.159 48 302.892 48C302.604 48 302.337 47.8987 302.092 47.696C301.857 47.4827 301.74 47.2 301.74 46.848ZM304.41 45.68V45.664L311.178 37.264H311.194V43.92H312.458V45.68H311.194V48H308.858V45.68H304.41ZM308.858 43.92V42.512L307.802 43.92H308.858ZM321.35 48H318.646L317.03 45.904L315.558 48H313.334L315.926 44.48L313.254 41.008H316.006L317.542 43.024L318.742 41.008H320.966L318.566 44.352L321.35 48Z" fill="#333333"/>
<path d="M1.664 80V68.064H1.68L7.376 76.144L13.152 68.064H13.168V80H11.632V72.528L7.376 78.544H7.344L3.168 72.736V80H1.664ZM18.8921 80.16C18.2628 80.16 17.6921 80.0267 17.1801 79.76C16.6788 79.4933 16.2788 79.104 15.9801 78.592C15.6921 78.0693 15.5481 77.4347 15.5481 76.688C15.5481 75.9413 15.6975 75.3013 15.9961 74.768C16.3055 74.2347 16.7161 73.824 17.2281 73.536C17.7508 73.248 18.3215 73.104 18.9401 73.104C19.5375 73.104 20.0441 73.232 20.4601 73.488C20.8761 73.744 21.2015 74.0533 21.4361 74.416L21.5481 73.376H22.9241V80H21.4361V78.912C21.3081 79.0827 21.1215 79.264 20.8761 79.456C20.6415 79.648 20.3535 79.8133 20.0121 79.952C19.6815 80.0907 19.3081 80.16 18.8921 80.16ZM19.2921 78.928C19.8361 78.928 20.3001 78.7787 20.6841 78.48C21.0681 78.1707 21.3188 77.7547 21.4361 77.232V75.92C21.3081 75.4613 21.0415 75.0827 20.6361 74.784C20.2308 74.4853 19.7668 74.336 19.2441 74.336C18.8388 74.336 18.4708 74.432 18.1401 74.624C17.8095 74.816 17.5428 75.0827 17.3401 75.424C17.1481 75.7653 17.0521 76.16 17.0521 76.608C17.0521 77.0453 17.1535 77.44 17.3561 77.792C17.5588 78.1333 17.8308 78.4107 18.1721 78.624C18.5135 78.8267 18.8868 78.928 19.2921 78.928ZM26.1548 70.464H27.6588V73.392H29.4668V74.576H27.6588V80H26.1548V74.576H24.9388V73.392H26.1548V70.464ZM33.3924 80.256C32.7844 80.256 32.283 80.0747 31.8884 79.712C31.4937 79.3387 31.291 78.8587 31.2804 78.272V73.376H32.7684V77.744C32.7897 78.1067 32.8964 78.4 33.0884 78.624C33.2804 78.848 33.579 78.9653 33.9844 78.976C34.347 78.976 34.6777 78.8693 34.9764 78.656C35.275 78.432 35.5097 78.1333 35.6804 77.76C35.8617 77.376 35.9524 76.944 35.9524 76.464V73.376H37.4404V80H36.0964L35.9844 78.752C35.771 79.1893 35.4297 79.552 34.9604 79.84C34.5017 80.1173 33.979 80.256 33.3924 80.256ZM41.3584 73.376L41.4704 74.928C41.6517 74.5547 41.9024 74.2347 42.2224 73.968C42.5424 73.6907 42.873 73.4827 43.2144 73.344C43.5664 73.1947 43.8704 73.1147 44.1264 73.104L44.0624 74.592C43.561 74.5707 43.1184 74.672 42.7344 74.896C42.3504 75.1093 42.0517 75.4027 41.8384 75.776C41.625 76.1493 41.5184 76.5493 41.5184 76.976V80H40.0304V73.376H41.3584ZM46.046 73.376H47.534V80H46.046V73.376ZM45.934 70.992C45.934 70.7467 46.0247 70.5493 46.206 70.4C46.398 70.24 46.606 70.16 46.83 70.16C47.054 70.16 47.2567 70.24 47.438 70.4C47.6193 70.5493 47.71 70.7467 47.71 70.992C47.71 71.2373 47.6193 71.44 47.438 71.6C47.2567 71.7493 47.054 71.824 46.83 71.824C46.606 71.824 46.398 71.7493 46.206 71.6C46.0247 71.44 45.934 71.2373 45.934 70.992ZM50.7641 70.464H52.2681V73.392H54.0761V74.576H52.2681V80H50.7641V74.576H49.5481V73.392H50.7641V70.464ZM56.4498 83.184L57.9698 79.792L54.8978 73.376H56.5778L58.7057 78.096L60.8178 73.376H62.1938L57.9218 83.184H56.4498Z" fill="#333333"/>
<path d="M242.16 77.68V77.664L248.928 69.264H248.944V75.92H250.208V77.68H248.944V80H246.608V77.68H242.16ZM246.608 75.92V74.512L245.552 75.92H246.608ZM251.084 76.56C251.084 76.0053 251.185 75.536 251.388 75.152C251.59 74.768 251.836 74.4533 252.124 74.208C252.422 73.952 252.694 73.7493 252.94 73.6C252.705 73.3547 252.502 73.104 252.332 72.848C252.172 72.5813 252.092 72.208 252.092 71.728C252.092 71.248 252.225 70.8213 252.492 70.448C252.769 70.0747 253.137 69.7867 253.596 69.584C254.054 69.3707 254.561 69.264 255.116 69.264C255.67 69.264 256.177 69.3707 256.636 69.584C257.105 69.7867 257.478 70.064 257.756 70.416C258.044 70.768 258.188 71.168 258.188 71.616C258.188 72.1493 258.097 72.5493 257.916 72.816C257.745 73.0827 257.532 73.344 257.276 73.6C257.532 73.76 257.798 73.968 258.076 74.224C258.364 74.48 258.609 74.8 258.812 75.184C259.014 75.5573 259.116 76.016 259.116 76.56C259.116 77.1787 258.94 77.76 258.588 78.304C258.236 78.848 257.756 79.2907 257.148 79.632C256.55 79.9627 255.862 80.128 255.084 80.128C254.305 80.128 253.612 79.9627 253.004 79.632C252.406 79.2907 251.937 78.848 251.596 78.304C251.254 77.76 251.084 77.1787 251.084 76.56ZM254.348 72.016C254.348 72.2293 254.433 72.416 254.604 72.576C254.785 72.736 254.972 72.816 255.164 72.816C255.356 72.816 255.537 72.736 255.708 72.576C255.878 72.416 255.964 72.2293 255.964 72.016C255.964 71.8027 255.878 71.616 255.708 71.456C255.548 71.2853 255.366 71.2 255.164 71.2C254.961 71.2 254.774 71.2853 254.604 71.456C254.433 71.616 254.348 71.8027 254.348 72.016ZM253.468 76.464C253.468 76.9333 253.628 77.3387 253.948 77.68C254.268 78.0107 254.652 78.176 255.1 78.176C255.409 78.176 255.692 78.1013 255.948 77.952C256.204 77.792 256.406 77.584 256.556 77.328C256.716 77.0613 256.796 76.7733 256.796 76.464C256.796 76.0053 256.641 75.6107 256.332 75.28C256.022 74.9387 255.644 74.7627 255.196 74.752C254.897 74.7413 254.614 74.8107 254.348 74.96C254.092 75.1093 253.878 75.3173 253.708 75.584C253.548 75.84 253.468 76.1333 253.468 76.464ZM266.083 80V67.744H266.099L272.067 76.208L278.179 67.744H278.211V80H275.891V74.384L272.051 79.84H272.019L268.323 74.736V80H266.083ZM280.342 76.416C280.342 75.7013 280.508 75.0613 280.838 74.496C281.18 73.9307 281.654 73.488 282.262 73.168C282.87 72.8373 283.569 72.672 284.358 72.672C285.158 72.672 285.852 72.8373 286.438 73.168C287.025 73.488 287.473 73.9307 287.782 74.496C288.102 75.0613 288.262 75.7013 288.262 76.416C288.262 77.1307 288.102 77.776 287.782 78.352C287.473 78.9173 287.025 79.3653 286.438 79.696C285.852 80.0267 285.148 80.192 284.326 80.192C283.558 80.192 282.87 80.0427 282.262 79.744C281.665 79.4453 281.196 79.0133 280.854 78.448C280.513 77.8827 280.342 77.2053 280.342 76.416ZM282.598 76.432C282.598 76.9867 282.758 77.4507 283.078 77.824C283.398 78.1867 283.804 78.368 284.294 78.368C284.817 78.368 285.233 78.1867 285.542 77.824C285.852 77.4507 286.006 76.9867 286.006 76.432C286.006 75.8773 285.852 75.4187 285.542 75.056C285.233 74.6827 284.817 74.496 284.294 74.496C283.804 74.496 283.398 74.6827 283.078 75.056C282.758 75.4187 282.598 75.8773 282.598 76.432ZM292.059 73.008L292.219 74.128C292.464 73.6907 292.811 73.3387 293.259 73.072C293.707 72.8053 294.251 72.672 294.891 72.672C295.552 72.672 296.102 72.8693 296.539 73.264C296.987 73.648 297.216 74.1493 297.227 74.768V80H294.987V75.6C294.976 75.2907 294.891 75.0453 294.731 74.864C294.582 74.672 294.326 74.576 293.963 74.576C293.44 74.576 293.024 74.8213 292.715 75.312C292.416 75.792 292.267 76.4053 292.267 77.152V80H290.027V73.008H292.059ZM300.183 69.936H302.423V72.976H304.119V74.72H302.423V80H300.183V74.72H299.095V72.976H300.183V69.936ZM305.824 80V67.376H308.016V74.112C308.261 73.6853 308.608 73.3387 309.056 73.072C309.504 72.8053 310.048 72.672 310.688 72.672C311.349 72.672 311.899 72.8693 312.336 73.264C312.784 73.648 313.013 74.1493 313.024 74.768V80H310.784V75.6C310.773 75.2907 310.688 75.0453 310.528 74.864C310.379 74.672 310.123 74.576 309.76 74.576C309.237 74.576 308.821 74.8213 308.512 75.312C308.213 75.792 308.064 76.4053 308.064 77.152V80H305.824ZM317.596 80.144C317.02 80.144 316.481 80.0427 315.98 79.84C315.489 79.6373 315.073 79.3547 314.732 78.992L315.66 77.76C316.001 78.0693 316.316 78.2933 316.604 78.432C316.903 78.56 317.169 78.624 317.404 78.624C317.681 78.624 317.911 78.5813 318.092 78.496C318.273 78.4107 318.364 78.272 318.364 78.08C318.364 77.8987 318.289 77.7547 318.14 77.648C318.001 77.5413 317.82 77.456 317.596 77.392C317.372 77.3173 317.132 77.2427 316.876 77.168C316.236 76.9653 315.772 76.672 315.484 76.288C315.207 75.8933 315.068 75.4667 315.068 75.008C315.068 74.656 315.159 74.304 315.34 73.952C315.532 73.5893 315.831 73.2907 316.236 73.056C316.652 72.8107 317.185 72.688 317.836 72.688C318.423 72.688 318.919 72.7467 319.324 72.864C319.729 72.9813 320.113 73.1733 320.476 73.44L319.628 74.752C319.425 74.592 319.196 74.4587 318.94 74.352C318.695 74.2347 318.465 74.1707 318.252 74.16C317.964 74.1493 317.74 74.2027 317.58 74.32C317.42 74.4267 317.34 74.5547 317.34 74.704C317.329 74.9067 317.404 75.0667 317.564 75.184C317.735 75.3013 317.948 75.392 318.204 75.456C318.46 75.52 318.711 75.5947 318.956 75.68C319.457 75.8507 319.857 76.096 320.156 76.416C320.455 76.7253 320.604 77.1413 320.604 77.664C320.604 78.0907 320.492 78.496 320.268 78.88C320.055 79.2533 319.724 79.5573 319.276 79.792C318.839 80.0267 318.279 80.144 317.596 80.144Z" fill="#333333"/>
<path d="M1.664 112V100.064H1.68L7.376 108.144L13.152 100.064H13.168V112H11.632V104.528L7.376 110.544H7.344L3.168 104.736V112H1.664ZM16.1241 105.376H17.6121V112H16.1241V105.376ZM16.0121 102.992C16.0121 102.747 16.1028 102.549 16.2841 102.4C16.4761 102.24 16.6841 102.16 16.9081 102.16C17.1321 102.16 17.3348 102.24 17.5161 102.4C17.6975 102.549 17.7881 102.747 17.7881 102.992C17.7881 103.237 17.6975 103.44 17.5161 103.6C17.3348 103.749 17.1321 103.824 16.9081 103.824C16.6841 103.824 16.4761 103.749 16.2841 103.6C16.1028 103.44 16.0121 103.237 16.0121 102.992ZM21.5463 105.376L21.6423 106.656C21.8663 106.187 22.2129 105.813 22.6823 105.536C23.1516 105.259 23.6956 105.12 24.3143 105.12C24.9329 105.12 25.4396 105.307 25.8343 105.68C26.2396 106.043 26.4529 106.517 26.4743 107.104V112H24.9703V107.616C24.9489 107.264 24.8369 106.976 24.6343 106.752C24.4423 106.528 24.1383 106.411 23.7223 106.4C23.1463 106.4 22.6609 106.635 22.2663 107.104C21.8823 107.563 21.6903 108.16 21.6903 108.896V112H20.2023V105.376H21.5463ZM28.294 111.152C28.294 110.907 28.3793 110.704 28.55 110.544C28.7313 110.373 28.9287 110.288 29.142 110.288C29.334 110.288 29.5207 110.373 29.702 110.544C29.8833 110.704 29.974 110.907 29.974 111.152C29.974 111.408 29.8833 111.616 29.702 111.776C29.5207 111.925 29.334 112 29.142 112C28.9287 112 28.7313 111.925 28.55 111.776C28.3793 111.616 28.294 111.408 28.294 111.152ZM37.1796 100.432H38.7316V112H37.1796V100.432ZM43.0306 105.376L43.1266 106.656C43.3506 106.187 43.6973 105.813 44.1666 105.536C44.636 105.259 45.18 105.12 45.7986 105.12C46.4173 105.12 46.924 105.307 47.3186 105.68C47.724 106.043 47.9373 106.517 47.9586 107.104V112H46.4546V107.616C46.4333 107.264 46.3213 106.976 46.1186 106.752C45.9266 106.528 45.6226 106.411 45.2066 106.4C44.6306 106.4 44.1453 106.635 43.7506 107.104C43.3666 107.563 43.1746 108.16 43.1746 108.896V112H41.6866V105.376H43.0306ZM52.984 112.192L49.304 105.376H51.08L53.08 109.616L54.936 105.376H56.6L53.064 112.192H52.984ZM61.118 112.16C60.3713 112.16 59.7207 112.011 59.166 111.712C58.622 111.403 58.2007 110.981 57.902 110.448C57.614 109.915 57.47 109.312 57.47 108.64C57.47 107.989 57.63 107.397 57.95 106.864C58.2807 106.32 58.7233 105.893 59.278 105.584C59.8433 105.264 60.4673 105.104 61.15 105.104C62.0247 105.104 62.75 105.36 63.326 105.872C63.902 106.384 64.2967 107.088 64.51 107.984L59.262 109.824C59.4433 110.155 59.6993 110.416 60.03 110.608C60.3607 110.789 60.734 110.88 61.15 110.88C61.4487 110.88 61.7313 110.827 61.998 110.72C62.2647 110.613 62.5207 110.475 62.766 110.304L63.454 111.408C63.1127 111.632 62.734 111.813 62.318 111.952C61.9127 112.091 61.5127 112.16 61.118 112.16ZM58.942 108.56C58.9313 108.688 58.9367 108.811 58.958 108.928L62.814 107.504C62.6647 107.184 62.446 106.901 62.158 106.656C61.8807 106.411 61.5073 106.288 61.038 106.288C60.43 106.288 59.9287 106.501 59.534 106.928C59.1393 107.355 58.942 107.899 58.942 108.56ZM68.2305 112.128C67.7505 112.128 67.2865 112.048 66.8385 111.888C66.4012 111.717 66.0385 111.467 65.7505 111.136L66.3905 110.272C66.6572 110.539 66.9398 110.741 67.2385 110.88C67.5372 111.008 67.8252 111.072 68.1025 111.072C68.4225 111.072 68.6998 111.008 68.9345 110.88C69.1798 110.752 69.3025 110.533 69.3025 110.224C69.3025 109.989 69.2225 109.803 69.0625 109.664C68.9132 109.525 68.7158 109.419 68.4705 109.344C68.2358 109.259 67.9905 109.173 67.7345 109.088C66.6038 108.725 66.0385 108.08 66.0385 107.152C66.0385 106.811 66.1238 106.485 66.2945 106.176C66.4758 105.867 66.7372 105.616 67.0785 105.424C67.4305 105.232 67.8625 105.136 68.3745 105.136C68.8332 105.136 69.2438 105.195 69.6065 105.312C69.9692 105.429 70.3105 105.616 70.6305 105.872L70.0385 106.784C69.8465 106.592 69.6172 106.448 69.3505 106.352C69.0945 106.245 68.8598 106.187 68.6465 106.176C68.3585 106.176 68.1025 106.245 67.8785 106.384C67.6652 106.523 67.5585 106.715 67.5585 106.96C67.5478 107.184 67.6172 107.365 67.7665 107.504C67.9158 107.632 68.1078 107.739 68.3425 107.824C68.5878 107.909 68.8332 107.989 69.0785 108.064C69.5585 108.224 69.9638 108.443 70.2945 108.72C70.6358 108.997 70.8065 109.403 70.8065 109.936C70.8065 110.533 70.5932 111.051 70.1665 111.488C69.7398 111.915 69.0945 112.128 68.2305 112.128ZM73.5298 102.464H75.0338V105.392H76.8418V106.576H75.0338V112H73.5298V106.576H72.3138V105.392H73.5298V102.464ZM79.9994 105.376L80.0954 106.64C80.3514 106.16 80.698 105.787 81.1354 105.52C81.5834 105.243 82.0954 105.104 82.6714 105.104C83.2154 105.104 83.6687 105.232 84.0314 105.488C84.4047 105.744 84.634 106.091 84.7194 106.528C84.986 106.08 85.3327 105.733 85.7594 105.488C86.1967 105.232 86.6607 105.104 87.1514 105.104C87.7914 105.104 88.298 105.291 88.6714 105.664C89.0554 106.037 89.258 106.512 89.2794 107.088V112H87.7914V107.648C87.77 107.307 87.6794 107.024 87.5194 106.8C87.37 106.565 87.1087 106.437 86.7354 106.416C86.3407 106.416 85.994 106.533 85.6954 106.768C85.3967 106.992 85.162 107.291 84.9914 107.664C84.8207 108.037 84.73 108.432 84.7194 108.848V112H83.2154V107.648C83.2047 107.307 83.114 107.024 82.9434 106.8C82.7834 106.565 82.5114 106.437 82.1274 106.416C81.7434 106.416 81.402 106.533 81.1034 106.768C80.8047 106.992 80.57 107.291 80.3994 107.664C80.2287 108.037 80.1434 108.437 80.1434 108.864V112H78.6554V105.376H79.9994ZM94.9305 112.16C94.1838 112.16 93.5332 112.011 92.9785 111.712C92.4345 111.403 92.0132 110.981 91.7145 110.448C91.4265 109.915 91.2825 109.312 91.2825 108.64C91.2825 107.989 91.4425 107.397 91.7625 106.864C92.0932 106.32 92.5358 105.893 93.0905 105.584C93.6558 105.264 94.2798 105.104 94.9625 105.104C95.8372 105.104 96.5625 105.36 97.1385 105.872C97.7145 106.384 98.1092 107.088 98.3225 107.984L93.0745 109.824C93.2558 110.155 93.5118 110.416 93.8425 110.608C94.1732 110.789 94.5465 110.88 94.9625 110.88C95.2612 110.88 95.5438 110.827 95.8105 110.72C96.0772 110.613 96.3332 110.475 96.5785 110.304L97.2665 111.408C96.9252 111.632 96.5465 111.813 96.1305 111.952C95.7252 112.091 95.3252 112.16 94.9305 112.16ZM92.7545 108.56C92.7438 108.688 92.7492 108.811 92.7705 108.928L96.6265 107.504C96.4772 107.184 96.2585 106.901 95.9705 106.656C95.6932 106.411 95.3198 106.288 94.8505 106.288C94.2425 106.288 93.7412 106.501 93.3465 106.928C92.9518 107.355 92.7545 107.899 92.7545 108.56ZM101.515 105.376L101.611 106.656C101.835 106.187 102.182 105.813 102.651 105.536C103.12 105.259 103.664 105.12 104.283 105.12C104.902 105.12 105.408 105.307 105.803 105.68C106.208 106.043 106.422 106.517 106.443 107.104V112H104.939V107.616C104.918 107.264 104.806 106.976 104.603 106.752C104.411 106.528 104.107 106.411 103.691 106.4C103.115 106.4 102.63 106.635 102.235 107.104C101.851 107.563 101.659 108.16 101.659 108.896V112H100.171V105.376H101.515ZM109.655 102.464H111.159V105.392H112.967V106.576H111.159V112H109.655V106.576H108.439V105.392H109.655V102.464Z" fill="#333333"/>
<path d="M290.712 113.088V112.08C290.168 112.016 289.619 111.888 289.064 111.696C288.52 111.493 288.003 111.216 287.512 110.864L288.536 109.056C288.845 109.291 289.192 109.493 289.576 109.664C289.971 109.824 290.349 109.941 290.712 110.016V106.864C290.285 106.683 289.875 106.464 289.48 106.208C289.085 105.941 288.76 105.6 288.504 105.184C288.248 104.768 288.12 104.245 288.12 103.616C288.12 102.656 288.413 101.877 289 101.28C289.597 100.683 290.381 100.32 291.352 100.192V99.136H292.696V100.208C293.368 100.272 293.933 100.405 294.392 100.608C294.861 100.811 295.293 101.04 295.688 101.296L294.808 103.072C294.456 102.88 294.099 102.715 293.736 102.576C293.384 102.427 293.037 102.325 292.696 102.272V105.2L292.776 105.232C293.235 105.403 293.677 105.621 294.104 105.888C294.531 106.144 294.883 106.501 295.16 106.96C295.437 107.408 295.576 108.005 295.576 108.752C295.576 109.307 295.443 109.829 295.176 110.32C294.909 110.8 294.515 111.205 293.992 111.536C293.469 111.856 292.824 112.048 292.056 112.112V113.088H290.712ZM290.52 103.44C290.52 103.664 290.595 103.872 290.744 104.064C290.904 104.256 291.107 104.427 291.352 104.576V102.336C290.797 102.507 290.52 102.875 290.52 103.44ZM293.16 108.752C293.16 108.485 293.053 108.245 292.84 108.032C292.637 107.808 292.376 107.611 292.056 107.44V110C292.355 109.925 292.611 109.792 292.824 109.6C293.048 109.397 293.16 109.115 293.16 108.752ZM296.878 101.392H300.062V112H297.726V103.632H296.878V101.392ZM306.602 112.016C305.791 112.016 305.045 111.824 304.362 111.44C303.69 111.056 303.151 110.464 302.746 109.664C302.341 108.864 302.138 107.856 302.138 106.64C302.138 105.275 302.33 104.203 302.714 103.424C303.109 102.635 303.642 102.075 304.314 101.744C304.986 101.413 305.749 101.253 306.602 101.264C307.423 101.253 308.17 101.445 308.842 101.84C309.514 102.224 310.053 102.816 310.458 103.616C310.863 104.405 311.066 105.413 311.066 106.64C311.066 107.909 310.858 108.944 310.442 109.744C310.037 110.533 309.498 111.109 308.826 111.472C308.154 111.835 307.413 112.016 306.602 112.016ZM306.586 109.792C307.119 109.792 307.535 109.653 307.834 109.376C308.133 109.088 308.341 108.699 308.458 108.208C308.586 107.717 308.65 107.173 308.65 106.576C308.65 105.989 308.586 105.467 308.458 105.008C308.341 104.549 308.133 104.187 307.834 103.92C307.535 103.643 307.119 103.504 306.586 103.504C306.063 103.504 305.653 103.643 305.354 103.92C305.055 104.197 304.847 104.571 304.73 105.04C304.613 105.509 304.554 106.037 304.554 106.624C304.554 107.211 304.613 107.744 304.73 108.224C304.847 108.704 305.055 109.088 305.354 109.376C305.653 109.653 306.063 109.792 306.586 109.792ZM316.649 112.016C315.838 112.016 315.092 111.824 314.409 111.44C313.737 111.056 313.198 110.464 312.793 109.664C312.388 108.864 312.185 107.856 312.185 106.64C312.185 105.275 312.377 104.203 312.761 103.424C313.156 102.635 313.689 102.075 314.361 101.744C315.033 101.413 315.796 101.253 316.649 101.264C317.47 101.253 318.217 101.445 318.889 101.84C319.561 102.224 320.1 102.816 320.505 103.616C320.91 104.405 321.113 105.413 321.113 106.64C321.113 107.909 320.905 108.944 320.489 109.744C320.084 110.533 319.545 111.109 318.873 111.472C318.201 111.835 317.46 112.016 316.649 112.016ZM316.633 109.792C317.166 109.792 317.582 109.653 317.881 109.376C318.18 109.088 318.388 108.699 318.505 108.208C318.633 107.717 318.697 107.173 318.697 106.576C318.697 105.989 318.633 105.467 318.505 105.008C318.388 104.549 318.18 104.187 317.881 103.92C317.582 103.643 317.166 103.504 316.633 103.504C316.11 103.504 315.7 103.643 315.401 103.92C315.102 104.197 314.894 104.571 314.777 105.04C314.66 105.509 314.601 106.037 314.601 106.624C314.601 107.211 314.66 107.744 314.777 108.224C314.894 108.704 315.102 109.088 315.401 109.376C315.7 109.653 316.11 109.792 316.633 109.792Z" fill="#333333"/>
</svg>
