<svg width="322" height="40" viewBox="0 0 322 40" fill="none" xmlns="http://www.w3.org/2000/svg">
<rect width="322" height="8" fill="#ECECEC"/>
<rect width="182" height="8" fill="#128C76"/>
<path d="M3.712 33.088V32.08C3.168 32.016 2.61867 31.888 2.064 31.696C1.52 31.4933 1.00267 31.216 0.512 30.864L1.536 29.056C1.84533 29.2907 2.192 29.4933 2.576 29.664C2.97067 29.824 3.34933 29.9413 3.712 30.016V26.864C3.28533 26.6827 2.87467 26.464 2.48 26.208C2.08533 25.9413 1.76 25.6 1.504 25.184C1.248 24.768 1.12 24.2453 1.12 23.616C1.12 22.656 1.41333 21.8773 2 21.28C2.59733 20.6827 3.38133 20.32 4.352 20.192V19.136H5.696V20.208C6.368 20.272 6.93333 20.4053 7.392 20.608C7.86133 20.8107 8.29333 21.04 8.688 21.296L7.808 23.072C7.456 22.88 7.09867 22.7147 6.736 22.576C6.384 22.4267 6.03733 22.3253 5.696 22.272V25.2L5.776 25.232C6.23467 25.4027 6.67733 25.6213 7.104 25.888C7.53067 26.144 7.88267 26.5013 8.16 26.96C8.43733 27.408 8.576 28.0053 8.576 28.752C8.576 29.3067 8.44267 29.8293 8.176 30.32C7.90933 30.8 7.51467 31.2053 6.992 31.536C6.46933 31.856 5.824 32.048 5.056 32.112V33.088H3.712ZM3.52 23.44C3.52 23.664 3.59467 23.872 3.744 24.064C3.904 24.256 4.10667 24.4267 4.352 24.576V22.336C3.79733 22.5067 3.52 22.8747 3.52 23.44ZM6.16 28.752C6.16 28.4853 6.05333 28.2453 5.84 28.032C5.63733 27.808 5.376 27.6107 5.056 27.44V30C5.35467 29.9253 5.61067 29.792 5.824 29.6C6.048 29.3973 6.16 29.1147 6.16 28.752ZM12.9501 32.128C12.3208 32.128 11.7075 32.0107 11.1101 31.776C10.5128 31.5413 10.0488 31.2587 9.71813 30.928L10.9181 29.072C11.1101 29.3067 11.3821 29.504 11.7341 29.664C12.0968 29.8133 12.4435 29.888 12.7741 29.888C13.1475 29.888 13.4728 29.7707 13.7501 29.536C14.0275 29.2907 14.1661 28.9333 14.1661 28.464C14.1661 27.952 14.0168 27.5413 13.7181 27.232C13.4195 26.912 13.0141 26.752 12.5021 26.752C12.1715 26.752 11.8568 26.8 11.5581 26.896C11.2595 26.9813 10.9075 27.1307 10.5021 27.344H10.4861V21.392H15.7821V23.632H12.4861V24.832C12.6675 24.8107 12.8595 24.8 13.0621 24.8C13.8088 24.8 14.4381 24.9653 14.9501 25.296C15.4728 25.6267 15.8728 26.064 16.1501 26.608C16.4275 27.152 16.5661 27.744 16.5661 28.384C16.5661 29.088 16.4061 29.7227 16.0861 30.288C15.7661 30.8533 15.3288 31.3013 14.7741 31.632C14.2301 31.9627 13.6221 32.128 12.9501 32.128ZM25.1674 21.392L21.2154 32H18.6234L21.8074 23.632H17.9994V21.392H25.1674ZM24.285 29.68V29.664L31.053 21.264H31.069V27.92H32.333V29.68H31.069V32H28.733V29.68H24.285ZM28.733 27.92V26.512L27.677 27.92H28.733ZM35.9768 30.592C35.7421 31.1573 35.5074 31.7173 35.2728 32.272C35.0381 32.8267 34.8034 33.3867 34.5688 33.952H32.7767C32.9901 33.3867 33.1981 32.8267 33.4008 32.272C33.6141 31.7173 33.8274 31.1573 34.0408 30.592H35.9768ZM39.85 28.688C39.338 28.688 38.842 28.544 38.362 28.256C37.8927 27.968 37.5033 27.568 37.194 27.056C36.8847 26.5333 36.73 25.936 36.73 25.264C36.73 24.4107 36.9167 23.6853 37.29 23.088C37.674 22.4907 38.1647 22.0373 38.762 21.728C39.3593 21.4187 39.9887 21.264 40.65 21.264C41.4287 21.264 42.122 21.44 42.73 21.792C43.3487 22.1333 43.8393 22.608 44.202 23.216C44.5647 23.8133 44.746 24.4907 44.746 25.248C44.746 26.1227 44.5913 26.912 44.282 27.616C43.9833 28.3093 43.578 28.9333 43.066 29.488C42.5647 30.0427 42.0047 30.5493 41.386 31.008C40.7673 31.456 40.1433 31.8773 39.514 32.272L37.962 30.592C38.7087 30.2933 39.3807 29.952 39.978 29.568C40.5753 29.1733 41.0607 28.7627 41.434 28.336C41.0073 28.5707 40.4793 28.688 39.85 28.688ZM40.746 26.736C41.194 26.736 41.5727 26.592 41.882 26.304C42.1913 26.016 42.346 25.6907 42.346 25.328V24.96C42.346 24.6827 42.2767 24.4213 42.138 24.176C41.9993 23.9307 41.8073 23.7333 41.562 23.584C41.3273 23.424 41.0553 23.344 40.746 23.344C40.2873 23.344 39.9033 23.4933 39.594 23.792C39.2953 24.08 39.146 24.5067 39.146 25.072C39.146 25.6267 39.3007 26.0427 39.61 26.32C39.9193 26.5973 40.298 26.736 40.746 26.736ZM45.8484 32C46.5097 31.328 47.1444 30.6827 47.7524 30.064C48.3604 29.4347 48.9044 28.832 49.3844 28.256C49.875 27.6693 50.259 27.104 50.5364 26.56C50.8244 26.016 50.9684 25.488 50.9684 24.976C50.9684 24.5173 50.819 24.16 50.5204 23.904C50.2217 23.6373 49.827 23.504 49.3364 23.504C48.8457 23.504 48.467 23.632 48.2004 23.888C47.9337 24.144 47.8004 24.416 47.8004 24.704C47.8004 25.0453 47.8537 25.3493 47.9604 25.616C48.0777 25.872 48.2324 26.1013 48.4244 26.304L47.0004 27.6C46.691 27.4507 46.4244 27.2 46.2004 26.848C45.987 26.496 45.8217 26.128 45.7044 25.744C45.5977 25.3493 45.5444 25.024 45.5444 24.768C45.5444 24.1813 45.7044 23.6213 46.0244 23.088C46.355 22.5547 46.8297 22.1173 47.4484 21.776C48.0777 21.4347 48.8404 21.264 49.7364 21.264C50.4724 21.264 51.1124 21.4293 51.6564 21.76C52.2004 22.0907 52.6217 22.528 52.9204 23.072C53.2297 23.6053 53.3844 24.176 53.3844 24.784C53.3844 25.392 53.267 25.9733 53.0324 26.528C52.7977 27.0827 52.4884 27.6267 52.1044 28.16C51.731 28.6827 51.3257 29.216 50.8884 29.76H53.5124V32H45.8484ZM59.3365 32.016C58.5258 32.016 57.7792 31.824 57.0965 31.44C56.4245 31.056 55.8858 30.464 55.4805 29.664C55.0752 28.864 54.8725 27.856 54.8725 26.64C54.8725 25.2747 55.0645 24.2027 55.4485 23.424C55.8432 22.6347 56.3765 22.0747 57.0485 21.744C57.7205 21.4133 58.4832 21.2533 59.3365 21.264C60.1578 21.2533 60.9045 21.4453 61.5765 21.84C62.2485 22.224 62.7872 22.816 63.1925 23.616C63.5978 24.4053 63.8005 25.4133 63.8005 26.64C63.8005 27.9093 63.5925 28.944 63.1765 29.744C62.7712 30.5333 62.2325 31.1093 61.5605 31.472C60.8885 31.8347 60.1472 32.016 59.3365 32.016ZM59.3205 29.792C59.8538 29.792 60.2698 29.6533 60.5685 29.376C60.8672 29.088 61.0752 28.6987 61.1925 28.208C61.3205 27.7173 61.3845 27.1733 61.3845 26.576C61.3845 25.9893 61.3205 25.4667 61.1925 25.008C61.0752 24.5493 60.8672 24.1867 60.5685 23.92C60.2698 23.6427 59.8538 23.504 59.3205 23.504C58.7978 23.504 58.3872 23.6427 58.0885 23.92C57.7898 24.1973 57.5818 24.5707 57.4645 25.04C57.3472 25.5093 57.2885 26.0373 57.2885 26.624C57.2885 27.2107 57.3472 27.744 57.4645 28.224C57.5818 28.704 57.7898 29.088 58.0885 29.376C58.3872 29.6533 58.7978 29.792 59.3205 29.792Z" fill="#128C76"/>
<path d="M71.0851 26.204L71.1831 27.562C71.3417 27.2353 71.5611 26.9553 71.8411 26.722C72.1211 26.4793 72.4104 26.2973 72.7091 26.176C73.0171 26.0453 73.2831 25.9753 73.5071 25.966L73.4511 27.268C73.0124 27.2493 72.6251 27.338 72.2891 27.534C71.9531 27.7207 71.6917 27.9773 71.5051 28.304C71.3184 28.6307 71.2251 28.9807 71.2251 29.354V32H69.9231V26.204H71.0851ZM77.472 32.14C76.9213 32.14 76.422 32.0233 75.974 31.79C75.5353 31.5567 75.1853 31.216 74.924 30.768C74.672 30.3107 74.546 29.7553 74.546 29.102C74.546 28.4487 74.6767 27.8887 74.938 27.422C75.2087 26.9553 75.568 26.596 76.016 26.344C76.4733 26.092 76.9727 25.966 77.514 25.966C78.0367 25.966 78.48 26.078 78.844 26.302C79.208 26.526 79.4927 26.7967 79.698 27.114L79.796 26.204H81V32H79.698V31.048C79.586 31.1973 79.4227 31.356 79.208 31.524C79.0027 31.692 78.7507 31.8367 78.452 31.958C78.1627 32.0793 77.836 32.14 77.472 32.14ZM77.822 31.062C78.298 31.062 78.704 30.9313 79.04 30.67C79.376 30.3993 79.5953 30.0353 79.698 29.578V28.43C79.586 28.0287 79.3527 27.6973 78.998 27.436C78.6433 27.1747 78.2373 27.044 77.78 27.044C77.4253 27.044 77.1033 27.128 76.814 27.296C76.5247 27.464 76.2913 27.6973 76.114 27.996C75.946 28.2947 75.862 28.64 75.862 29.032C75.862 29.4147 75.9507 29.76 76.128 30.068C76.3053 30.3667 76.5433 30.6093 76.842 30.796C77.1407 30.9733 77.4673 31.062 77.822 31.062ZM83.2668 26.204H84.5688V32H83.2668V26.204ZM83.1688 24.118C83.1688 23.9033 83.2481 23.7307 83.4068 23.6C83.5748 23.46 83.7568 23.39 83.9528 23.39C84.1488 23.39 84.3261 23.46 84.4848 23.6C84.6435 23.7307 84.7228 23.9033 84.7228 24.118C84.7228 24.3327 84.6435 24.51 84.4848 24.65C84.3261 24.7807 84.1488 24.846 83.9528 24.846C83.7568 24.846 83.5748 24.7807 83.4068 24.65C83.2481 24.51 83.1688 24.3327 83.1688 24.118ZM88.4732 32.112C88.0532 32.112 87.6472 32.042 87.2552 31.902C86.8725 31.7527 86.5552 31.5333 86.3032 31.244L86.8632 30.488C87.0965 30.7213 87.3438 30.8987 87.6052 31.02C87.8665 31.132 88.1185 31.188 88.3612 31.188C88.6412 31.188 88.8838 31.132 89.0892 31.02C89.3038 30.908 89.4112 30.7167 89.4112 30.446C89.4112 30.2407 89.3412 30.0773 89.2012 29.956C89.0705 29.8347 88.8978 29.7413 88.6832 29.676C88.4778 29.6013 88.2632 29.5267 88.0392 29.452C87.0498 29.1347 86.5552 28.57 86.5552 27.758C86.5552 27.4593 86.6298 27.1747 86.7792 26.904C86.9378 26.6333 87.1665 26.414 87.4652 26.246C87.7732 26.078 88.1512 25.994 88.5992 25.994C89.0005 25.994 89.3598 26.0453 89.6772 26.148C89.9945 26.2507 90.2932 26.414 90.5732 26.638L90.0552 27.436C89.8872 27.268 89.6865 27.142 89.4532 27.058C89.2292 26.9647 89.0238 26.9133 88.8372 26.904C88.5852 26.904 88.3612 26.9647 88.1652 27.086C87.9785 27.2073 87.8852 27.3753 87.8852 27.59C87.8758 27.786 87.9365 27.9447 88.0672 28.066C88.1978 28.178 88.3658 28.2713 88.5712 28.346C88.7858 28.4207 89.0005 28.4907 89.2152 28.556C89.6352 28.696 89.9898 28.8873 90.2792 29.13C90.5778 29.3727 90.7272 29.7273 90.7272 30.194C90.7272 30.7167 90.5405 31.1693 90.1672 31.552C89.7938 31.9253 89.2292 32.112 88.4732 32.112ZM95.238 32.14C94.5847 32.14 94.0153 32.0093 93.53 31.748C93.054 31.4773 92.6853 31.1087 92.424 30.642C92.172 30.1753 92.046 29.648 92.046 29.06C92.046 28.4907 92.186 27.9727 92.466 27.506C92.7553 27.03 93.1427 26.6567 93.628 26.386C94.1227 26.106 94.6687 25.966 95.266 25.966C96.0313 25.966 96.666 26.19 97.17 26.638C97.674 27.086 98.0193 27.702 98.206 28.486L93.614 30.096C93.7727 30.3853 93.9967 30.614 94.286 30.782C94.5753 30.9407 94.902 31.02 95.266 31.02C95.5273 31.02 95.7747 30.9733 96.008 30.88C96.2413 30.7867 96.4653 30.6653 96.68 30.516L97.282 31.482C96.9833 31.678 96.652 31.8367 96.288 31.958C95.9333 32.0793 95.5833 32.14 95.238 32.14ZM93.334 28.99C93.3247 29.102 93.3293 29.2093 93.348 29.312L96.722 28.066C96.5913 27.786 96.4 27.5387 96.148 27.324C95.9053 27.1093 95.5787 27.002 95.168 27.002C94.636 27.002 94.1973 27.1887 93.852 27.562C93.5067 27.9353 93.334 28.4113 93.334 28.99ZM102.189 32.14C101.639 32.14 101.144 32.014 100.705 31.762C100.276 31.5007 99.9355 31.1367 99.6835 30.67C99.4408 30.194 99.3195 29.6433 99.3195 29.018C99.3195 28.3833 99.4501 27.8373 99.7115 27.38C99.9728 26.9227 100.332 26.5727 100.789 26.33C101.256 26.0873 101.774 25.966 102.343 25.966C102.782 25.966 103.202 26.0593 103.603 26.246C104.005 26.4233 104.327 26.6707 104.569 26.988V21.15H105.871V32H104.555V31.104C104.275 31.412 103.93 31.664 103.519 31.86C103.118 32.0467 102.675 32.14 102.189 32.14ZM102.595 31.02C103.099 31.02 103.524 30.8847 103.869 30.614C104.215 30.3433 104.439 29.9793 104.541 29.522V28.43C104.439 28.0193 104.205 27.6787 103.841 27.408C103.487 27.1373 103.071 27.002 102.595 27.002C102.241 27.002 101.914 27.0907 101.615 27.268C101.317 27.436 101.079 27.6693 100.901 27.968C100.724 28.2667 100.635 28.612 100.635 29.004C100.635 29.3773 100.724 29.718 100.901 30.026C101.079 30.334 101.317 30.5767 101.615 30.754C101.914 30.9313 102.241 31.02 102.595 31.02ZM112.048 29.046C112.048 28.4673 112.183 27.9447 112.454 27.478C112.734 27.0113 113.117 26.6427 113.602 26.372C114.087 26.1013 114.643 25.966 115.268 25.966C115.893 25.966 116.444 26.1013 116.92 26.372C117.396 26.6427 117.765 27.0113 118.026 27.478C118.297 27.9447 118.432 28.4673 118.432 29.046C118.432 29.6247 118.297 30.1473 118.026 30.614C117.765 31.0807 117.391 31.454 116.906 31.734C116.43 32.0047 115.875 32.14 115.24 32.14C114.624 32.14 114.073 32.014 113.588 31.762C113.112 31.51 112.734 31.1507 112.454 30.684C112.183 30.2173 112.048 29.6713 112.048 29.046ZM113.364 29.06C113.364 29.4333 113.443 29.774 113.602 30.082C113.77 30.3807 113.994 30.6187 114.274 30.796C114.554 30.9733 114.871 31.062 115.226 31.062C115.59 31.062 115.912 30.9733 116.192 30.796C116.472 30.6187 116.691 30.3807 116.85 30.082C117.018 29.774 117.102 29.4333 117.102 29.06C117.102 28.6867 117.018 28.3507 116.85 28.052C116.691 27.744 116.472 27.5013 116.192 27.324C115.912 27.1373 115.59 27.044 115.226 27.044C114.871 27.044 114.549 27.1373 114.26 27.324C113.98 27.5107 113.761 27.758 113.602 28.066C113.443 28.3647 113.364 28.696 113.364 29.06ZM120.657 32V27.366H119.663V26.19H120.657V23.754C120.657 22.914 120.848 22.27 121.231 21.822C121.614 21.374 122.174 21.15 122.911 21.15C123.098 21.15 123.308 21.178 123.541 21.234C123.784 21.29 123.998 21.3787 124.185 21.5L123.625 22.452C123.541 22.368 123.448 22.312 123.345 22.284C123.242 22.2467 123.14 22.228 123.037 22.228C122.701 22.228 122.435 22.3447 122.239 22.578C122.052 22.8113 121.959 23.208 121.959 23.768V26.19H123.807V27.366H121.959V32H120.657ZM132.435 32.952V32.098C131.847 32.0607 131.296 31.9393 130.783 31.734C130.279 31.5287 129.845 31.3 129.481 31.048L130.083 29.97C130.382 30.194 130.746 30.3993 131.175 30.586C131.604 30.7633 132.024 30.8707 132.435 30.908V27.226C132.034 27.0767 131.646 26.8947 131.273 26.68C130.9 26.4653 130.587 26.19 130.335 25.854C130.092 25.5087 129.971 25.0653 129.971 24.524C129.971 23.7587 130.223 23.138 130.727 22.662C131.24 22.186 131.903 21.9107 132.715 21.836V20.94H133.541V21.85C134.045 21.8967 134.498 21.9947 134.899 22.144C135.31 22.284 135.678 22.4473 136.005 22.634L135.487 23.684C135.198 23.5347 134.88 23.404 134.535 23.292C134.199 23.1707 133.868 23.0913 133.541 23.054V26.232H133.555C133.975 26.3907 134.381 26.582 134.773 26.806C135.165 27.03 135.487 27.3333 135.739 27.716C135.991 28.0893 136.117 28.5933 136.117 29.228C136.117 29.732 136 30.1893 135.767 30.6C135.543 31.0107 135.216 31.3467 134.787 31.608C134.367 31.8693 133.858 32.0327 133.261 32.098V32.952H132.435ZM131.371 24.426C131.371 24.762 131.497 25.0467 131.749 25.28C132.01 25.5133 132.332 25.7187 132.715 25.896V23.054C132.295 23.1193 131.964 23.2733 131.721 23.516C131.488 23.7493 131.371 24.0527 131.371 24.426ZM134.717 29.242C134.717 28.822 134.572 28.4813 134.283 28.22C134.003 27.9587 133.662 27.7393 133.261 27.562V30.852C133.644 30.7773 133.98 30.6093 134.269 30.348C134.568 30.0867 134.717 29.718 134.717 29.242ZM137.48 22.788H139.902V32H138.53V24.09H137.48V22.788ZM143.683 30.768C143.469 31.2627 143.259 31.7527 143.053 32.238C142.857 32.7233 142.661 33.2087 142.465 33.694H141.387C141.574 33.2087 141.756 32.7233 141.933 32.238C142.12 31.7527 142.307 31.2627 142.493 30.768H143.683ZM148.571 32.042C147.806 32.042 147.134 31.8553 146.555 31.482C145.976 31.0993 145.524 30.558 145.197 29.858C144.87 29.158 144.707 28.3227 144.707 27.352C144.707 25.8027 145.057 24.636 145.757 23.852C146.457 23.068 147.395 22.6807 148.571 22.69C149.327 22.6807 149.994 22.8673 150.573 23.25C151.161 23.6233 151.618 24.16 151.945 24.86C152.272 25.56 152.435 26.3907 152.435 27.352C152.435 28.3507 152.272 29.2 151.945 29.9C151.618 30.6 151.161 31.132 150.573 31.496C149.994 31.86 149.327 32.042 148.571 32.042ZM148.557 30.74C149.098 30.74 149.551 30.6 149.915 30.32C150.279 30.0307 150.554 29.6293 150.741 29.116C150.928 28.6027 151.026 28.0053 151.035 27.324C151.026 26.3347 150.811 25.532 150.391 24.916C149.98 24.3 149.369 23.9967 148.557 24.006C148.025 23.9967 147.577 24.1367 147.213 24.426C146.849 24.706 146.574 25.098 146.387 25.602C146.2 26.106 146.107 26.6893 146.107 27.352C146.107 28.024 146.2 28.6167 146.387 29.13C146.574 29.634 146.849 30.0307 147.213 30.32C147.577 30.6 148.025 30.74 148.557 30.74ZM157.307 32.042C156.542 32.042 155.87 31.8553 155.291 31.482C154.713 31.0993 154.26 30.558 153.933 29.858C153.607 29.158 153.443 28.3227 153.443 27.352C153.443 25.8027 153.793 24.636 154.493 23.852C155.193 23.068 156.131 22.6807 157.307 22.69C158.063 22.6807 158.731 22.8673 159.309 23.25C159.897 23.6233 160.355 24.16 160.681 24.86C161.008 25.56 161.171 26.3907 161.171 27.352C161.171 28.3507 161.008 29.2 160.681 29.9C160.355 30.6 159.897 31.132 159.309 31.496C158.731 31.86 158.063 32.042 157.307 32.042ZM157.293 30.74C157.835 30.74 158.287 30.6 158.651 30.32C159.015 30.0307 159.291 29.6293 159.477 29.116C159.664 28.6027 159.762 28.0053 159.771 27.324C159.762 26.3347 159.547 25.532 159.127 24.916C158.717 24.3 158.105 23.9967 157.293 24.006C156.761 23.9967 156.313 24.1367 155.949 24.426C155.585 24.706 155.31 25.098 155.123 25.602C154.937 26.106 154.843 26.6893 154.843 27.352C154.843 28.024 154.937 28.6167 155.123 29.13C155.31 29.634 155.585 30.0307 155.949 30.32C156.313 30.6 156.761 30.74 157.293 30.74ZM166.044 32.042C165.278 32.042 164.606 31.8553 164.028 31.482C163.449 31.0993 162.996 30.558 162.67 29.858C162.343 29.158 162.18 28.3227 162.18 27.352C162.18 25.8027 162.53 24.636 163.23 23.852C163.93 23.068 164.868 22.6807 166.044 22.69C166.8 22.6807 167.467 22.8673 168.046 23.25C168.634 23.6233 169.091 24.16 169.418 24.86C169.744 25.56 169.908 26.3907 169.908 27.352C169.908 28.3507 169.744 29.2 169.418 29.9C169.091 30.6 168.634 31.132 168.046 31.496C167.467 31.86 166.8 32.042 166.044 32.042ZM166.03 30.74C166.571 30.74 167.024 30.6 167.388 30.32C167.752 30.0307 168.027 29.6293 168.214 29.116C168.4 28.6027 168.498 28.0053 168.508 27.324C168.498 26.3347 168.284 25.532 167.864 24.916C167.453 24.3 166.842 23.9967 166.03 24.006C165.498 23.9967 165.05 24.1367 164.686 24.426C164.322 24.706 164.046 25.098 163.86 25.602C163.673 26.106 163.58 26.6893 163.58 27.352C163.58 28.024 163.673 28.6167 163.86 29.13C164.046 29.634 164.322 30.0307 164.686 30.32C165.05 30.6 165.498 30.74 166.03 30.74ZM172.736 30.768C172.521 31.2627 172.311 31.7527 172.106 32.238C171.91 32.7233 171.714 33.2087 171.518 33.694H170.44C170.627 33.2087 170.809 32.7233 170.986 32.238C171.173 31.7527 171.359 31.2627 171.546 30.768H172.736ZM177.624 32.042C176.859 32.042 176.187 31.8553 175.608 31.482C175.029 31.0993 174.577 30.558 174.25 29.858C173.923 29.158 173.76 28.3227 173.76 27.352C173.76 25.8027 174.11 24.636 174.81 23.852C175.51 23.068 176.448 22.6807 177.624 22.69C178.38 22.6807 179.047 22.8673 179.626 23.25C180.214 23.6233 180.671 24.16 180.998 24.86C181.325 25.56 181.488 26.3907 181.488 27.352C181.488 28.3507 181.325 29.2 180.998 29.9C180.671 30.6 180.214 31.132 179.626 31.496C179.047 31.86 178.38 32.042 177.624 32.042ZM177.61 30.74C178.151 30.74 178.604 30.6 178.968 30.32C179.332 30.0307 179.607 29.6293 179.794 29.116C179.981 28.6027 180.079 28.0053 180.088 27.324C180.079 26.3347 179.864 25.532 179.444 24.916C179.033 24.3 178.422 23.9967 177.61 24.006C177.078 23.9967 176.63 24.1367 176.266 24.426C175.902 24.706 175.627 25.098 175.44 25.602C175.253 26.106 175.16 26.6893 175.16 27.352C175.16 28.024 175.253 28.6167 175.44 29.13C175.627 29.634 175.902 30.0307 176.266 30.32C176.63 30.6 177.078 30.74 177.61 30.74ZM186.36 32.042C185.595 32.042 184.923 31.8553 184.344 31.482C183.766 31.0993 183.313 30.558 182.986 29.858C182.66 29.158 182.496 28.3227 182.496 27.352C182.496 25.8027 182.846 24.636 183.546 23.852C184.246 23.068 185.184 22.6807 186.36 22.69C187.116 22.6807 187.784 22.8673 188.362 23.25C188.95 23.6233 189.408 24.16 189.734 24.86C190.061 25.56 190.224 26.3907 190.224 27.352C190.224 28.3507 190.061 29.2 189.734 29.9C189.408 30.6 188.95 31.132 188.362 31.496C187.784 31.86 187.116 32.042 186.36 32.042ZM186.346 30.74C186.888 30.74 187.34 30.6 187.704 30.32C188.068 30.0307 188.344 29.6293 188.53 29.116C188.717 28.6027 188.815 28.0053 188.824 27.324C188.815 26.3347 188.6 25.532 188.18 24.916C187.77 24.3 187.158 23.9967 186.346 24.006C185.814 23.9967 185.366 24.1367 185.002 24.426C184.638 24.706 184.363 25.098 184.176 25.602C183.99 26.106 183.896 26.6893 183.896 27.352C183.896 28.024 183.99 28.6167 184.176 29.13C184.363 29.634 184.638 30.0307 185.002 30.32C185.366 30.6 185.814 30.74 186.346 30.74ZM195.097 32.042C194.331 32.042 193.659 31.8553 193.081 31.482C192.502 31.0993 192.049 30.558 191.723 29.858C191.396 29.158 191.233 28.3227 191.233 27.352C191.233 25.8027 191.583 24.636 192.283 23.852C192.983 23.068 193.921 22.6807 195.097 22.69C195.853 22.6807 196.52 22.8673 197.099 23.25C197.687 23.6233 198.144 24.16 198.471 24.86C198.797 25.56 198.961 26.3907 198.961 27.352C198.961 28.3507 198.797 29.2 198.471 29.9C198.144 30.6 197.687 31.132 197.099 31.496C196.52 31.86 195.853 32.042 195.097 32.042ZM195.083 30.74C195.624 30.74 196.077 30.6 196.441 30.32C196.805 30.0307 197.08 29.6293 197.267 29.116C197.453 28.6027 197.551 28.0053 197.561 27.324C197.551 26.3347 197.337 25.532 196.917 24.916C196.506 24.3 195.895 23.9967 195.083 24.006C194.551 23.9967 194.103 24.1367 193.739 24.426C193.375 24.706 193.099 25.098 192.913 25.602C192.726 26.106 192.633 26.6893 192.633 27.352C192.633 28.024 192.726 28.6167 192.913 29.13C193.099 29.634 193.375 30.0307 193.739 30.32C194.103 30.6 194.551 30.74 195.083 30.74Z" fill="#333333"/>
</svg>
